<?xml version="1.0" encoding="UTF-8"?>
<svg width="30px" height="30px" viewBox="0 0 30 30" xmlns="http://www.w3.org/2000/svg" xmlns:xlink="http://www.w3.org/1999/xlink" version="1.1">
 <!-- Generated by Pixelmator Pro 1.2 -->
 <defs>
  <path id="path" d="M14.586 4.969 C14.522 5.461 14.371 9.384 14.371 9.384 14.321 9.949 13.92 10.413 13.92 10.413 L11.473 12.602 11.472 12.56 C11.471 12.544 11.47 12.525 11.469 12.509 11.603 12.447 11.697 12.301 11.694 12.13 L11.717 11.273 C11.714 11.047 11.547 10.867 11.343 10.869 L10.94 10.889 C10.737 10.891 10.575 11.076 10.578 11.302 L10.622 12.143 C10.622 12.288 10.695 12.416 10.803 12.487 10.797 12.514 10.794 12.541 10.794 12.57 L10.798 12.877 C10.799 12.974 10.836 13.059 10.892 13.126 L8.135 15.574 8.155 14.834 C8.152 14.609 7.985 14.429 7.781 14.431 L7.378 14.451 C7.175 14.453 7.013 14.638 7.016 14.864 L7.06 15.705 C7.06 15.85 7.133 15.978 7.241 16.049 7.235 16.076 7.232 16.103 7.232 16.132 L7.235 16.381 3.611 19.598 C3.575 19.449 3.447 19.535 3.447 19.535 L3.275 20.992 C3.147 22.163 3.496 21.006 3.496 21.006 L8.341 18.124 C8.384 18.499 8.431 18.744 8.466 18.738 8.501 18.736 8.509 18.453 8.497 18.031 L9.899 17.196 C9.945 17.583 9.99 17.834 10.025 17.832 10.06 17.83 10.069 17.537 10.054 17.103 L10.713 16.712 12.277 16.236 C12.321 16.601 12.365 16.836 12.397 16.835 12.43 16.833 12.442 16.578 12.431 16.192 L13.408 15.895 C13.448 16.218 13.492 16.424 13.52 16.421 13.552 16.419 13.562 16.194 13.555 15.849 L14.405 15.589 C14.251 16.958 14.414 21.837 14.414 21.837 14.447 22.515 14.715 24.645 14.715 24.645 L11.323 27.735 11.314 28.757 14.744 27.86 14.776 28.296 14.895 28.781 15.328 27.837 15.415 28.194 C15.574 28.554 15.748 28.246 15.748 28.246 L15.898 27.811 19.585 28.616 19.622 27.587 16.452 24.463 C16.547 24.174 16.849 21.772 16.849 21.772 16.946 21.438 17.122 15.456 17.122 15.456 L17.991 15.755 C18.034 16.117 18.081 16.348 18.113 16.344 18.142 16.343 18.155 16.133 18.147 15.807 L19.056 16.123 C19.099 16.485 19.143 16.717 19.175 16.715 19.204 16.715 19.217 16.504 19.211 16.175 L20.819 16.725 21.303 17.024 C21.349 17.395 21.394 17.633 21.426 17.632 21.455 17.631 21.468 17.431 21.463 17.121 L22.751 17.913 C22.797 18.31 22.844 18.571 22.879 18.568 22.908 18.568 22.92 18.351 22.915 18.012 L27.291 20.705 C27.363 21.53 27.411 20.932 27.411 20.932 L27.439 19.406 C27.417 19.036 27.267 19.218 27.267 19.218 L24.243 16.48 C24.259 16.437 24.27 16.389 24.267 16.338 L24.263 16.031 C24.263 16.015 24.261 15.996 24.26 15.98 24.394 15.918 24.488 15.772 24.485 15.601 L24.509 14.744 C24.505 14.518 24.338 14.339 24.135 14.34 L23.732 14.361 C23.528 14.362 23.366 14.547 23.37 14.773 L23.413 15.614 C23.415 15.662 23.423 15.706 23.436 15.748 L20.671 13.244 C20.778 13.182 20.852 13.061 20.85 12.919 L20.846 12.612 C20.846 12.596 20.844 12.577 20.844 12.561 20.977 12.499 21.071 12.353 21.068 12.182 L21.092 11.325 C21.088 11.099 20.921 10.919 20.718 10.921 L20.315 10.942 C20.111 10.943 19.949 11.128 19.953 11.354 L19.996 12.195 C19.996 12.341 20.07 12.468 20.178 12.539 20.171 12.567 20.168 12.593 20.169 12.622 L20.169 12.771 17.871 10.574 C17.871 10.574 17.19 9.896 17.043 9.439 17.043 9.439 16.884 5.531 16.761 4.683 16.356 1.904 15.69 1.736 15.69 1.736 14.74 1.995 14.586 4.969 14.586 4.969 Z"/>
 </defs>
 <use id="path-1" xlink:href="#path" fill="#5a5a5a" fill-opacity="1" stroke="none"/>
 <defs>
  <path id="stroke-path" d="M14.328 28.5 L14.453 29.25 15.203 29.344 15.406 28.875 15.875 28.875 16.156 28.375 20.063 29.25 20.109 27.391 16.953 24.281 17.563 16.188 17.719 16.875 18.578 16.813 18.594 16.5 18.609 16.5 18.766 17.25 19.641 17.188 19.656 16.859 20.469 17.141 21.203 18.219 21.906 18.031 21.906 17.984 22.313 18.234 22.469 19.109 23.344 19.047 23.359 18.875 26.828 21.016 26.953 21.688 27.859 21.609 27.875 18.953 24.766 16.281 25 14 22.922 14.063 22.922 14.625 21.25 13.125 21.563 12.391 21.375 10.438 19.453 10.688 19.516 11.406 17.594 9.406 17.172 4.078 15.859 0.781 14.531 2.391 14.078 4.922 13.859 9.281 13.531 10.078 12.109 11.359 12.188 10.594 10.172 10.422 10.375 12.938 8.578 14.516 8.563 14.156 6.656 13.984 6.719 16.156 2.953 19.297 2.734 21.906 3.563 22.125 3.875 21.359 7.969 18.906 8.047 19.281 8.938 19.219 8.969 18.328 9.531 18 9.609 18.375 10.5 18.313 10.531 17.391 10.844 17.203 11.891 16.891 11.984 17.375 12.875 17.313 12.906 16.578 13.047 16.547 13.125 16.922 13.938 16.859 14.188 24.438 10.813 27.531 10.813 29.406 Z"/>
 </defs>
 <use id="path-2" stroke="#ececec" stroke-opacity="1" stroke-linecap="round" fill="none" stroke-width="1" xlink:href="#stroke-path"/>
</svg>
