<?xml version="1.0" encoding="UTF-8"?>
<svg width="30px" height="30px" viewBox="0 0 30 30" xmlns="http://www.w3.org/2000/svg" xmlns:xlink="http://www.w3.org/1999/xlink" version="1.1">
 <!-- Generated by Pixelmator Pro 1.2 -->
 <defs>
  <path id="path" d="M11.521 26.256 L11.718 27.243 14.795 27.671 14.96 28.855 15.108 28.872 15.322 27.671 15.492 27.643 15.445 30.015 15.601 30.031 15.601 27.769 16.342 27.926 16.35 27.564 16.148 27.538 18.399 27.177 18.497 26.239 15.658 26.063 15.675 25.038 15.544 25.046 15.524 26.054 15.322 26.042 15.684 18.572 16.061 17.472 17.888 22.883 18.81 22.587 16.677 16.231 17.049 15.956 17.041 15.08 17.843 15.08 17.843 14.06 17.03 14.06 17.014 12.44 17.3 12.694 26.349 12.694 26.349 11.74 17.007 11.77 16.968 7.915 19.139 1.263 18.316 1 16.638 6.052 C16.547 5.898 16.434 5.75 16.292 5.607 16.081 5.415 15.78 5.223 15.289 5.13 15.283 5.058 15.278 4.987 15.272 4.916 15.08 4.916 14.888 4.916 14.697 4.916 14.697 4.971 14.697 5.026 14.697 5.081 14.354 5.111 13.962 5.338 13.742 5.59 13.501 5.941 13.293 6.358 13.216 6.792 13.089 7.285 13.013 7.762 13.035 8.272 L13.026 9.661 6.371 4.883 5.812 5.574 13.019 10.795 13.006 12.776 5.647 18.078 6.108 18.802 12.2 14.346 12.2 15.08 12.991 15.08 12.985 15.956 13.627 16.45 14.4 18.687 14.763 26.025 11.521 26.256 11.521 26.256 Z M16.297 7.24 C15.915 7.136 15.436 7.163 15.129 7.149 15.123 6.774 15.117 6.398 15.112 6.022 15.559 6.011 16.154 6.14 16.502 6.417 16.434 6.702 16.365 6.955 16.297 7.24 L16.297 7.24 Z M13.12 8.272 L13.207 7.014 13.36 7.52 13.273 8.276 13.12 8.272 13.12 8.272 Z M13.331 6.693 C13.712 6.232 14.077 5.969 14.894 6.002 14.894 6.383 14.894 6.764 14.894 7.145 14.529 7.154 13.893 7.104 13.528 7.367 13.463 7.143 13.397 6.918 13.331 6.693 L13.331 6.693 Z M12.59 14.06 L13 13.76 12.998 14.06 12.59 14.06 Z"/>
 </defs>
 <use id="path-1" xlink:href="#path" fill="#5a5a5a" fill-opacity="1" stroke="none"/>
 <defs>
  <path id="stroke-path" d="M16.047 28.391 L16.531 28.484 16.906 28 16.875 27.938 18.844 27.625 19.031 25.781 16.156 25.609 16.172 24.625 15.891 24.578 16.141 19.297 17.563 23.516 19.438 22.922 17.25 16.422 17.547 16.219 17.531 15.594 18.328 15.594 18.328 13.563 17.516 13.563 17.5 12.969 26.844 13.219 26.844 11.25 17.5 11.281 17.453 7.984 19.75 0.953 18 0.375 16.391 5.203 15.344 4.344 13.344 5.219 12.625 7.063 12.563 8.719 6.266 4.203 5.078 5.672 12.516 11.047 12.5 12.516 4.969 17.969 5.953 19.531 11.688 15.344 11.688 15.594 12.484 15.594 12.484 16.219 13.219 16.766 13.891 18.766 14.219 25.563 10.922 25.813 11.281 27.703 14.344 28.125 14.516 29.297 14.953 29.359 14.922 30.484 15.906 30.516 Z M15.625 6.688 L15.625 6.656 15.813 6.703 Z M13.5 6.5 L13.109 8.281 Z M13.5 13.5 L12.578 14.063 Z"/>
 </defs>
 <use id="path-2" stroke="#ececec" stroke-opacity="1" stroke-linecap="round" fill="none" stroke-width="1" xlink:href="#stroke-path"/>
</svg>
