<?xml version="1.0" encoding="UTF-8"?>
<svg width="30px" height="30px" viewBox="0 0 30 30" xmlns="http://www.w3.org/2000/svg" xmlns:xlink="http://www.w3.org/1999/xlink" version="1.1">
 <!-- Generated by Pixelmator Pro 1.2 -->
 <defs>
  <path id="path" d="M14.963 1.522 C14.637 1.765 14.205 3.108 13.665 5.55 L13.218 10.491 12.324 13.635 12.324 14.533 7.409 18.646 7.409 17.678 C7.409 17.434 7.388 17.224 7.346 17.046 7.304 16.868 7.251 16.779 7.186 16.779 7.121 16.779 7.067 16.868 7.025 17.046 6.983 17.224 6.962 17.434 6.962 17.678 L6.962 19.025 6.962 21.271 6.962 22.169 7.409 22.169 7.409 21.271 13.218 21.271 13.218 23.517 10.09 26.212 10.09 27.559 10.537 28.008 13.218 28.008 13.218 27.559 13.664 27.559 13.664 25.762 13.776 25.762 14.111 28.457 15.899 28.457 16.234 25.762 16.345 25.762 16.345 27.559 16.792 27.559 16.792 28.008 19.473 28.008 19.92 27.559 19.92 26.212 16.792 23.517 16.792 21.271 22.601 21.271 22.601 22.169 23.047 22.169 23.047 21.271 23.047 19.025 23.047 17.678 C23.047 17.434 23.027 17.224 22.985 17.046 22.943 16.868 22.889 16.779 22.824 16.779 22.759 16.779 22.705 16.868 22.663 17.046 22.621 17.224 22.601 17.434 22.601 17.678 L22.601 18.646 17.685 14.533 17.685 13.635 16.792 10.491 16.345 5.55 C15.749 2.865 15.302 1.517 15.005 1.508 L14.963 1.522 Z"/>
 </defs>
 <use id="path-1" xlink:href="#path" fill="#5a5a5a" fill-opacity="1" stroke="none"/>
 <defs>
  <path id="stroke-path" d="M16.391 28.516 L19.688 28.516 20.406 27.766 20.406 25.984 17.281 23.297 17.281 21.781 22.094 21.781 22.094 22.672 23.547 22.672 23.531 17.156 22.844 16.359 22.203 16.578 22.141 17.625 18.109 14.25 17.281 10.453 16.844 5.469 15.406 1.031 14.594 1.031 13.156 5.469 12.703 10.453 11.875 14.25 7.766 17.688 7.547 16.266 6.641 16.328 6.438 22.672 7.906 22.672 7.906 21.781 12.703 21.781 12.703 23.297 9.578 25.984 9.578 27.766 10.328 28.516 13.609 28.516 13.672 28.969 16.328 28.969 Z"/>
 </defs>
 <use id="path-2" stroke="#ececec" stroke-opacity="1" stroke-linecap="round" fill="none" stroke-width="1" xlink:href="#stroke-path"/>
</svg>
