<?xml version="1.0" encoding="UTF-8"?>
<svg width="30px" height="30px" viewBox="0 0 30 30" xmlns="http://www.w3.org/2000/svg" xmlns:xlink="http://www.w3.org/1999/xlink" version="1.1">
 <!-- Generated by Pixelmator Pro 1.2 -->
 <g id="new-group-copy">
  <defs>
   <path id="path" d="M15.052 4.359 C15.004 4.359 14.872 4.571 14.759 4.828 14.462 5.51 14.443 5.54 14.257 5.568 14.164 5.582 14.048 5.64 14 5.698 13.952 5.756 13.803 6.323 13.668 6.957 13.471 7.889 13.422 8.31 13.421 9.151 13.421 9.723 13.392 10.234 13.358 10.288 13.311 10.362 12.066 10.398 8.324 10.433 5.589 10.459 2.94 10.502 2.438 10.528 1.186 10.591 1.24 10.51 1.263 12.291 1.274 13.065 1.311 13.728 1.348 13.765 1.425 13.843 1.602 13.863 6.94 14.348 9.183 14.552 11.561 14.769 12.226 14.83 12.89 14.891 13.466 14.971 13.505 15.011 13.578 15.085 13.654 15.518 14.28 19.324 14.516 20.755 14.615 21.55 14.563 21.602 14.519 21.646 13.674 21.781 12.685 21.903 11.433 22.057 10.823 22.169 10.676 22.265 L10.465 22.402 10.521 23.432 C10.552 23.999 10.605 24.492 10.638 24.526 10.671 24.559 11.632 24.59 12.774 24.594 14.052 24.6 14.89 24.635 14.953 24.686 15.009 24.732 15.055 24.941 15.055 25.153 15.055 25.364 15.079 25.561 15.109 25.591 15.282 25.763 15.463 25.467 15.463 25.007 15.463 24.788 15.503 24.669 15.59 24.635 15.661 24.608 16.652 24.587 17.792 24.587 18.933 24.587 19.87 24.578 19.872 24.566 19.917 24.356 19.947 22.853 19.911 22.66 19.826 22.21 19.539 22.107 17.645 21.849 16.715 21.723 15.911 21.593 15.855 21.559 15.778 21.511 15.826 21.038 16.069 19.474 16.243 18.361 16.751 15.033 16.776 15.008 16.8 14.984 18.982 14.726 21.626 14.435 24.269 14.144 26.965 13.847 27.616 13.775 28.266 13.703 28.844 13.605 28.9 13.558 28.9 13.558 28.954 12.872 28.979 12.187 29.004 11.502 29 10.818 29 10.818 28.986 10.715 28.907 10.629 28.847 10.545 L28.691 10.354 22.75 10.313 16.809 10.273 16.755 9.088 C16.702 7.918 16.464 6.505 16.222 5.927 16.149 5.75 16.013 5.613 15.838 5.54 15.657 5.464 15.535 5.337 15.468 5.157 15.258 4.592 15.137 4.359 15.052 4.359 Z M15.297 25.308"/>
  </defs>
  <use id="path3476" xlink:href="#path" fill="#5a5a5a" fill-opacity="1" stroke="none"/>
  <defs>
   <path id="stroke-path" d="M15.922 25.141 L20.391 25.078 20.188 21.922 16.391 21.141 17.219 15.469 29.266 14.063 29.406 10.125 17.25 9.797 16.797 5.984 15.063 3.531 13.469 5.609 12.859 9.844 2.359 10.031 0.797 10.484 0.891 14.25 13.094 15.516 13.984 21.172 9.922 22 10.156 25.016 14.453 25.141 14.875 26.156 15.547 26.156 Z"/>
  </defs>
  <use id="path3476-1" stroke="#ececec" stroke-opacity="1" stroke-linecap="round" fill="none" stroke-width="1" xlink:href="#stroke-path"/>
  <defs>
   <path id="path-1" d="M11 4 L18.026 4.001"/>
  </defs>
  <use id="path-2" xlink:href="#path-1" fill="#5a5a5a" fill-opacity="1" stroke="none"/>
  <defs>
   <path id="stroke-path-1" d=""/>
  </defs>
  <use id="path-3" stroke="#ececec" stroke-opacity="1" stroke-linecap="round" fill="none" stroke-width="1" xlink:href="#stroke-path-1"/>
 </g>
</svg>
