<?xml version="1.0" encoding="UTF-8"?>
<svg width="160px" height="160px" viewBox="0 0 160 160" xmlns="http://www.w3.org/2000/svg" xmlns:xlink="http://www.w3.org/1999/xlink" version="1.1">
 <!-- Generated by Pixelmator Pro 1.2 -->
 <path id="path" d="M114.249 47.063 C113.949 47.104 113.906 47.151 113.906 47.443 L113.906 47.776 112 47.776 C109.962 47.776 109.686 47.838 109.686 48.292 109.686 48.558 109.656 48.572 109.048 48.572 108.433 48.572 108.406 48.584 108.3 48.912 108.218 49.165 108.123 49.253 107.932 49.253 107.79 49.253 107.646 49.338 107.608 49.443 107.464 49.848 107.161 50.048 106.692 50.048 106.214 50.048 106.1 50.16 106.1 50.626 106.1 50.792 106.025 50.843 105.784 50.843 105.506 50.843 105.467 50.883 105.467 51.168 105.467 51.474 105.436 51.497 104.928 51.562 104.332 51.638 104.096 51.79 104.096 52.099 104.096 52.249 104.002 52.316 103.753 52.341 103.453 52.372 103.406 52.422 103.378 52.74 103.349 53.055 103.302 53.106 103.008 53.137 102.729 53.166 102.667 53.225 102.639 53.485 102.613 53.721 102.548 53.797 102.37 53.797 102.067 53.797 101.881 54 101.881 54.331 101.881 54.545 101.824 54.592 101.564 54.592 101.273 54.592 101.248 54.624 101.248 54.99 101.248 55.368 101.23 55.387 100.879 55.387 100.539 55.387 100.51 55.414 100.51 55.728 100.51 56.024 100.471 56.069 100.22 56.07 99.429 56.073 99.139 56.197 99.139 56.531 99.139 56.807 99.093 56.854 98.796 56.885 98.494 56.916 98.449 56.965 98.42 57.29 98.39 57.628 98.356 57.659 98.024 57.659 97.695 57.659 97.661 57.689 97.661 57.987 97.661 58.3 97.635 58.318 97.073 58.394 96.545 58.465 96.473 58.507 96.377 58.804 96.293 59.064 96.206 59.136 95.975 59.136 95.675 59.136 95.552 59.304 95.552 59.713 95.552 59.88 95.477 59.931 95.235 59.931 94.956 59.931 94.919 59.97 94.919 60.265 94.919 60.558 94.878 60.603 94.576 60.634 94.276 60.665 94.229 60.715 94.201 61.033 94.168 61.396 94.165 61.397 93.515 61.431 92.863 61.465 92.862 61.465 92.829 61.834 92.799 62.172 92.766 62.203 92.433 62.203 92.103 62.203 92.071 62.232 92.071 62.536 92.071 62.83 92.03 62.875 91.728 62.906 91.427 62.937 91.381 62.986 91.352 63.311 91.32 63.675 91.313 63.68 90.767 63.68 90.166 63.68 89.961 63.813 89.961 64.206 89.961 64.41 89.893 64.468 89.619 64.496 89.335 64.526 89.27 64.585 89.243 64.837 89.218 65.073 89.146 65.151 88.927 65.178 88.692 65.207 88.637 65.277 88.61 65.582 L88.577 65.952 87.903 65.952 87.228 65.952 87.159 66.349 87.09 66.747 86.054 66.747 C85.064 66.747 85.017 66.736 84.985 66.494 84.931 66.089 84.525 65.955 83.34 65.953 L82.256 65.952 82.195 65.623 C82.123 65.236 81.881 65.156 80.783 65.156 80.161 65.156 80.063 65.128 80.016 64.931 79.933 64.591 79.51 64.475 78.351 64.475 77.328 64.475 77.303 64.469 77.303 64.214 77.303 63.758 77.116 63.68 76.024 63.68 75.124 63.68 74.99 63.654 74.936 63.473 74.827 63.101 74.206 62.885 73.246 62.885 L72.36 62.885 72.326 62.572 72.293 62.26 70.948 62.228 C69.71 62.199 69.603 62.179 69.603 61.982 69.603 61.443 69.531 61.408 68.432 61.408 L67.388 61.408 67.388 61.083 C67.388 60.708 67.01 60.615 65.47 60.613 64.665 60.612 64.66 60.611 64.626 60.3 L64.593 59.988 63.565 59.956 C62.636 59.926 62.536 59.902 62.536 59.708 62.536 59.16 62.4 59.136 59.333 59.136 56.293 59.136 56.207 59.151 56.207 59.67 56.207 59.917 56.168 59.931 55.476 59.931 54.608 59.931 54.203 60.07 54.203 60.366 54.203 60.545 54.095 60.593 53.561 60.653 52.788 60.739 52.726 60.775 52.726 61.13 52.726 61.396 52.697 61.408 52.04 61.408 L51.355 61.408 51.355 61.805 51.355 62.203 50.726 62.203 C49.886 62.203 49.865 62.256 49.902 64.275 L49.931 65.895 50.267 65.93 C50.544 65.959 50.609 66.019 50.636 66.271 50.667 66.553 50.719 66.584 51.323 66.677 51.921 66.768 51.979 66.802 52.009 67.074 52.037 67.339 52.092 67.375 52.513 67.408 53.036 67.448 53.23 67.574 53.368 67.963 53.435 68.156 53.543 68.224 53.778 68.224 54.047 68.224 54.097 68.268 54.097 68.504 54.097 68.858 54.372 69.019 54.974 69.019 55.41 69.019 55.447 69.042 55.505 69.359 55.559 69.646 55.619 69.701 55.881 69.701 56.157 69.701 56.198 69.744 56.227 70.07 56.26 70.439 56.26 70.439 56.919 70.473 57.482 70.501 57.578 70.538 57.578 70.719 57.578 71.124 57.703 71.291 58.005 71.291 58.252 71.291 58.309 71.344 58.336 71.603 58.364 71.863 58.427 71.921 58.712 71.951 58.995 71.981 59.055 72.035 59.055 72.26 59.055 72.607 59.334 72.767 59.938 72.767 60.397 72.767 60.414 72.78 60.446 73.136 60.475 73.461 60.521 73.51 60.822 73.542 61.124 73.573 61.165 73.617 61.165 73.911 61.165 74.216 61.196 74.244 61.534 74.244 61.858 74.244 61.903 74.279 61.903 74.531 61.903 74.868 62.224 75.04 62.853 75.04 63.236 75.04 63.263 75.062 63.294 75.409 63.321 75.714 63.376 75.784 63.61 75.813 63.826 75.84 63.91 75.927 63.961 76.182 64.018 76.459 64.082 76.516 64.337 76.516 64.589 76.516 64.646 76.564 64.646 76.777 64.646 77.179 64.848 77.311 65.458 77.311 65.939 77.311 66.017 77.342 66.017 77.529 66.017 77.943 66.14 78.106 66.45 78.106 66.719 78.106 66.755 78.147 66.755 78.447 66.755 78.761 66.784 78.788 67.125 78.788 67.476 78.788 67.494 78.807 67.494 79.186 67.494 79.553 67.519 79.583 67.813 79.583 68.081 79.583 68.142 79.636 68.194 79.918 68.24 80.167 68.332 80.27 68.548 80.321 68.766 80.373 68.857 80.477 68.903 80.725 68.956 81.007 69.015 81.06 69.284 81.06 69.557 81.06 69.603 81.102 69.603 81.354 69.603 81.574 69.68 81.679 69.911 81.772 70.121 81.858 70.236 81.999 70.278 82.22 70.323 82.465 70.413 82.558 70.656 82.61 71.112 82.708 71.124 83.271 70.672 83.369 70.333 83.442 70.24 83.673 70.238 84.44 L70.236 84.922 69.677 84.922 C69.097 84.922 68.865 85.056 68.865 85.39 68.865 85.513 68.752 85.613 68.561 85.658 68.331 85.712 68.241 85.812 68.194 86.065 68.142 86.347 68.081 86.399 67.813 86.399 67.519 86.399 67.494 86.43 67.494 86.797 67.494 87.175 67.476 87.194 67.125 87.194 66.784 87.194 66.755 87.221 66.755 87.535 66.755 87.835 66.719 87.876 66.45 87.876 66.14 87.876 66.017 88.039 66.017 88.453 66.017 88.638 65.939 88.671 65.497 88.671 64.937 88.671 64.646 88.868 64.646 89.247 64.646 89.414 64.571 89.466 64.336 89.466 64.077 89.466 64.021 89.517 63.993 89.778 63.967 90.025 63.894 90.102 63.644 90.148 63.377 90.196 63.322 90.264 63.294 90.574 63.264 90.911 63.23 90.943 62.898 90.943 62.556 90.943 62.536 90.964 62.536 91.333 62.536 91.69 62.507 91.727 62.193 91.759 61.911 91.789 61.845 91.848 61.818 92.097 61.788 92.376 61.737 92.405 61.154 92.478 60.568 92.551 60.518 92.58 60.462 92.879 60.417 93.123 60.334 93.211 60.124 93.237 59.896 93.266 59.84 93.338 59.813 93.641 59.783 93.979 59.75 94.01 59.418 94.01 59.085 94.01 59.055 94.038 59.055 94.351 59.055 94.686 59.046 94.691 58.501 94.693 57.848 94.695 57.718 94.766 57.668 95.146 57.631 95.425 57.613 95.431 56.557 95.462 L55.483 95.495 55.45 95.18 C55.405 94.757 55.1 94.706 52.554 94.698 50.631 94.692 50.533 94.681 50.481 94.466 50.381 94.055 49.973 94.01 46.39 94.01 L42.916 94.01 42.916 94.351 C42.916 94.688 42.91 94.691 42.345 94.691 41.583 94.691 41.439 94.765 41.439 95.153 41.439 95.47 41.427 95.477 40.78 95.51 40.123 95.544 40.121 95.545 40.088 95.907 40.056 96.27 40.053 96.272 39.403 96.305 38.78 96.337 38.748 96.353 38.717 96.647 38.69 96.899 38.616 96.969 38.321 97.029 L37.959 97.102 37.959 97.771 C37.959 98.139 37.999 98.44 38.048 98.44 38.195 98.44 38.697 98.948 38.697 99.097 38.697 99.175 38.835 99.235 39.014 99.235 39.255 99.235 39.33 99.287 39.33 99.453 39.33 99.958 39.43 100.03 40.126 100.03 L40.793 100.03 40.826 100.4 C40.854 100.716 40.905 100.774 41.176 100.806 41.357 100.827 41.584 100.966 41.707 101.13 41.863 101.339 42.057 101.432 42.419 101.477 42.878 101.532 42.916 101.561 42.916 101.851 42.916 102.223 43.066 102.303 43.769 102.303 44.271 102.303 44.288 102.313 44.288 102.631 44.288 103.02 44.43 103.098 45.14 103.098 45.646 103.098 45.659 103.106 45.659 103.438 45.659 103.75 45.689 103.779 46.015 103.779 46.322 103.779 46.379 103.823 46.431 104.105 46.498 104.463 46.715 104.57 47.373 104.573 47.722 104.574 47.768 104.607 47.768 104.852 47.768 105.212 47.909 105.298 48.612 105.368 49.151 105.422 49.195 105.448 49.226 105.739 49.255 106.009 49.306 106.051 49.61 106.051 49.892 106.051 49.973 106.104 50.025 106.324 50.093 106.619 50.54 106.846 51.054 106.846 51.316 106.846 51.355 106.889 51.355 107.178 51.355 107.503 51.37 107.511 52.04 107.589 52.709 107.666 52.726 107.676 52.726 107.995 52.726 108.322 52.727 108.323 53.405 108.323 L54.084 108.323 54.117 108.692 54.15 109.061 54.862 109.095 C55.566 109.128 55.574 109.132 55.574 109.45 55.574 110.131 58.224 110.112 58.297 109.43 58.33 109.126 58.348 109.118 59.01 109.118 L59.688 109.118 59.688 108.726 59.688 108.334 60.4 108.3 C61.089 108.267 61.113 108.257 61.146 107.954 61.176 107.669 61.218 107.641 61.62 107.64 62.349 107.637 62.536 107.544 62.536 107.179 62.536 106.864 62.549 106.856 63.195 106.823 63.854 106.79 63.855 106.79 63.888 106.42 L63.92 106.051 64.602 106.051 C65.275 106.051 65.285 106.047 65.347 105.711 65.402 105.416 65.457 105.37 65.753 105.37 66.501 105.37 66.755 105.252 66.755 104.906 66.755 104.592 66.769 104.585 67.415 104.552 68.072 104.518 68.074 104.516 68.107 104.154 68.139 103.792 68.143 103.789 68.788 103.756 69.382 103.725 69.441 103.698 69.498 103.438 69.552 103.188 69.637 103.142 70.22 103.053 70.832 102.958 70.885 102.927 70.941 102.627 70.996 102.328 71.038 102.303 71.469 102.303 72.072 102.303 72.346 102.141 72.346 101.787 72.346 101.527 72.384 101.507 72.865 101.507 73.54 101.507 73.717 101.425 73.717 101.112 73.717 100.882 73.784 100.847 74.358 100.777 74.945 100.705 75.007 100.671 75.106 100.365 75.183 100.127 75.284 100.03 75.455 100.03 76.056 100.03 76.385 99.882 76.498 99.558 76.591 99.294 76.674 99.235 76.958 99.235 77.271 99.235 77.303 99.204 77.303 98.895 77.303 98.599 77.342 98.554 77.594 98.553 78.384 98.549 78.675 98.425 78.675 98.092 78.675 97.815 78.72 97.768 79.018 97.737 79.318 97.706 79.364 97.656 79.393 97.339 79.422 97.024 79.469 96.972 79.762 96.942 80.039 96.913 80.104 96.853 80.131 96.601 80.157 96.365 80.229 96.288 80.448 96.26 80.683 96.231 80.737 96.161 80.765 95.856 80.795 95.518 80.828 95.487 81.16 95.487 81.504 95.487 81.523 95.466 81.523 95.089 81.523 94.712 81.542 94.691 81.885 94.691 82.426 94.691 82.753 94.517 82.83 94.188 82.884 93.956 82.963 93.896 83.215 93.896 83.482 93.896 83.542 93.843 83.594 93.562 83.641 93.309 83.723 93.219 83.928 93.193 84.135 93.166 84.221 93.07 84.289 92.789 84.363 92.476 84.425 92.42 84.69 92.42 84.965 92.42 85.004 92.38 85.004 92.092 85.004 91.806 85.052 91.753 85.373 91.688 85.696 91.624 85.742 91.572 85.742 91.279 85.742 90.984 85.78 90.943 86.047 90.943 86.357 90.943 86.481 90.779 86.481 90.365 86.481 90.199 86.555 90.148 86.797 90.148 87.077 90.148 87.113 90.109 87.113 89.814 87.113 89.521 87.155 89.476 87.456 89.445 87.756 89.414 87.803 89.364 87.832 89.047 87.86 88.731 87.908 88.68 88.201 88.649 88.495 88.618 88.542 88.568 88.57 88.245 88.6 87.92 88.641 87.876 88.913 87.876 89.186 87.876 89.223 87.835 89.223 87.542 89.223 87.249 89.265 87.204 89.566 87.173 89.867 87.142 89.913 87.093 89.942 86.768 89.97 86.448 90.014 86.399 90.269 86.399 90.769 86.399 91.212 86.176 91.247 85.908 91.271 85.732 91.366 85.65 91.579 85.624 91.804 85.596 91.914 85.491 92.028 85.198 92.143 84.903 92.243 84.809 92.442 84.809 92.662 84.809 92.704 84.755 92.704 84.475 92.704 84.182 92.745 84.137 93.047 84.106 93.347 84.075 93.394 84.025 93.422 83.708 93.451 83.392 93.498 83.341 93.791 83.31 94.068 83.281 94.134 83.221 94.161 82.97 94.186 82.734 94.258 82.656 94.477 82.629 94.694 82.602 94.785 82.506 94.862 82.224 94.944 81.922 95.016 81.855 95.257 81.855 95.524 81.855 95.552 81.817 95.552 81.458 95.552 81.079 95.57 81.06 95.921 81.06 96.261 81.06 96.29 81.033 96.29 80.719 96.29 80.419 96.327 80.379 96.595 80.379 96.906 80.379 97.029 80.214 97.029 79.801 97.029 79.635 97.104 79.583 97.345 79.583 97.636 79.583 97.661 79.552 97.661 79.186 97.661 78.807 97.679 78.788 98.031 78.788 98.371 78.788 98.4 78.761 98.4 78.447 98.4 78.165 98.443 78.106 98.648 78.106 99.08 78.106 99.572 77.86 99.665 77.597 99.721 77.439 99.877 77.317 100.082 77.273 100.339 77.217 100.422 77.13 100.472 76.859 100.526 76.573 100.586 76.516 100.839 76.516 101.103 76.516 101.142 76.474 101.142 76.188 101.142 75.903 101.191 75.85 101.512 75.785 101.832 75.72 101.881 75.667 101.881 75.382 101.881 75.095 101.924 75.049 102.224 75.018 102.525 74.987 102.571 74.938 102.599 74.613 102.628 74.292 102.671 74.244 102.934 74.244 103.182 74.244 103.247 74.185 103.303 73.91 103.355 73.655 103.438 73.568 103.655 73.541 103.889 73.512 103.944 73.442 103.971 73.136 104.001 72.799 104.035 72.767 104.367 72.767 104.71 72.767 104.729 72.747 104.729 72.37 104.729 72.003 104.754 71.972 105.048 71.972 105.317 71.972 105.377 71.919 105.429 71.638 105.476 71.382 105.557 71.295 105.769 71.269 105.998 71.24 106.053 71.168 106.081 70.865 106.111 70.526 106.144 70.495 106.476 70.495 106.82 70.495 106.839 70.475 106.839 70.098 106.839 69.721 106.857 69.701 107.201 69.701 107.74 69.701 108.083 69.523 108.123 69.224 108.149 69.022 108.235 68.954 108.493 68.927 108.766 68.899 108.841 68.831 108.896 68.564 108.946 68.317 109.031 68.229 109.245 68.202 109.479 68.173 109.534 68.103 109.561 67.797 109.592 67.46 109.625 67.428 109.957 67.428 110.286 67.428 110.319 67.398 110.319 67.1 110.319 66.815 110.368 66.763 110.689 66.698 111.012 66.632 111.058 66.581 111.058 66.287 111.058 65.992 111.095 65.952 111.368 65.952 111.64 65.952 111.681 65.907 111.71 65.582 111.739 65.258 111.785 65.209 112.086 65.178 112.388 65.146 112.429 65.102 112.429 64.809 112.429 64.555 112.478 64.475 112.631 64.475 113.016 64.475 113.168 64.343 113.168 64.008 113.168 63.719 113.205 63.68 113.484 63.68 113.775 63.68 113.8 63.648 113.8 63.282 113.8 62.904 113.818 62.885 114.17 62.885 114.509 62.885 114.539 62.857 114.539 62.546 114.539 62.271 114.593 62.193 114.829 62.131 115.165 62.042 115.273 61.903 115.275 61.558 115.277 61.411 115.363 61.28 115.486 61.238 115.618 61.193 115.738 60.993 115.814 60.691 115.88 60.429 115.95 60.155 115.969 60.082 115.988 60.008 116.136 59.931 116.299 59.911 116.547 59.88 116.601 59.815 116.628 59.512 116.656 59.196 116.704 59.145 116.998 59.114 117.292 59.083 117.338 59.033 117.367 58.71 117.391 58.442 117.453 58.341 117.591 58.341 117.881 58.341 118.003 58.109 118.039 57.486 118.071 56.94 118.084 56.92 118.415 56.885 L118.758 56.849 118.758 56.118 C118.758 55.474 118.782 55.387 118.96 55.387 119.43 55.387 119.497 55.28 119.497 54.523 119.497 53.801 119.498 53.797 119.797 53.797 L120.097 53.797 120.168 52.362 C120.207 51.573 120.208 50.397 120.169 49.749 L120.098 48.572 119.804 48.572 C119.549 48.572 119.506 48.522 119.477 48.202 119.448 47.878 119.402 47.829 119.101 47.797 118.803 47.767 118.758 47.72 118.758 47.44 118.758 47.252 118.689 47.09 118.591 47.05 118.412 46.976 114.819 46.987 114.249 47.063 M32.5 47.852 C32.427 47.883 32.368 48.058 32.368 48.24 L32.368 48.572 31.063 48.572 C29.446 48.572 29.114 48.637 28.967 48.985 28.868 49.219 28.778 49.254 28.264 49.259 27.187 49.272 26.835 49.385 26.798 49.732 26.766 50.026 26.738 50.04 26.059 50.071 L25.354 50.105 25.321 50.474 25.287 50.843 24.609 50.843 23.93 50.843 23.93 51.184 C23.93 51.521 23.923 51.525 23.358 51.525 22.596 51.525 22.453 51.598 22.453 51.986 22.453 52.303 22.44 52.31 21.794 52.343 21.134 52.377 21.134 52.377 21.101 52.746 21.068 53.111 21.062 53.116 20.516 53.116 19.937 53.116 19.71 53.25 19.71 53.592 19.71 53.718 19.632 53.797 19.508 53.797 19.127 53.797 18.972 53.929 18.972 54.256 18.972 54.536 18.927 54.583 18.629 54.613 18.329 54.645 18.282 54.694 18.253 55.013 18.221 55.375 18.218 55.377 17.568 55.411 16.956 55.442 16.913 55.462 16.884 55.735 16.86 55.95 16.765 56.052 16.514 56.132 16.255 56.214 16.169 56.312 16.143 56.552 16.115 56.813 16.059 56.864 15.8 56.864 15.517 56.864 15.491 56.897 15.491 57.262 15.491 57.64 15.474 57.659 15.122 57.659 14.782 57.659 14.752 57.686 14.752 58 14.752 58.26 14.705 58.341 14.55 58.341 14.166 58.341 14.014 58.473 14.014 58.807 14.014 59.097 13.976 59.136 13.698 59.136 13.406 59.136 13.381 59.167 13.381 59.533 13.381 59.911 13.363 59.931 13.019 59.931 12.687 59.931 12.653 59.962 12.623 60.3 12.596 60.604 12.541 60.676 12.311 60.704 11.996 60.743 11.908 60.965 11.906 61.72 11.905 62.181 11.89 62.203 11.588 62.203 11.307 62.203 11.272 62.241 11.272 62.544 11.272 62.804 11.224 62.885 11.069 62.885 10.666 62.885 10.533 63.014 10.533 63.408 10.533 63.709 10.49 63.793 10.335 63.793 10.052 63.793 9.91 64.026 9.835 64.617 9.777 65.073 9.733 65.141 9.465 65.199 9.169 65.263 9.162 65.28 9.162 66.006 L9.162 66.747 8.793 66.747 8.423 66.747 8.423 67.485 8.423 68.224 8.109 68.224 C7.762 68.224 7.71 68.342 7.661 69.246 7.635 69.711 7.606 69.761 7.342 69.793 L7.052 69.829 7.052 70.888 7.052 71.947 6.683 72.022 6.314 72.096 6.314 73.219 6.314 74.343 6.024 74.379 C5.649 74.425 5.604 74.658 5.588 76.646 L5.576 78.196 5.256 78.565 4.936 78.933 4.966 83.529 4.995 88.125 5.286 88.374 C5.572 88.62 5.576 88.639 5.576 89.937 5.576 91.917 5.644 92.304 6.009 92.382 L6.307 92.446 6.337 93.541 6.367 94.635 6.706 94.67 7.045 94.705 7.075 95.806 7.105 96.906 7.39 96.942 C7.662 96.976 7.677 97.01 7.707 97.681 7.737 98.363 7.748 98.387 8.076 98.491 8.404 98.594 8.416 98.62 8.446 99.286 8.476 99.971 8.478 99.974 8.819 100.01 L9.162 100.045 9.162 100.776 C9.162 101.503 9.164 101.507 9.46 101.507 9.745 101.507 9.762 101.539 9.856 102.217 9.946 102.877 9.974 102.93 10.243 102.963 10.497 102.995 10.533 103.048 10.533 103.389 10.533 103.759 10.552 103.779 10.902 103.779 11.254 103.779 11.272 103.798 11.272 104.177 11.272 104.543 11.297 104.574 11.588 104.574 11.89 104.574 11.905 104.597 11.906 105.057 11.908 105.85 11.995 106.051 12.332 106.051 12.591 106.051 12.634 106.1 12.663 106.42 12.692 106.744 12.738 106.794 13.032 106.824 13.325 106.855 13.373 106.907 13.401 107.222 13.428 107.521 13.484 107.591 13.718 107.62 13.937 107.647 14.009 107.724 14.034 107.961 14.061 108.213 14.126 108.273 14.41 108.302 14.724 108.334 14.752 108.37 14.752 108.728 14.752 109.097 14.772 109.118 15.115 109.118 15.447 109.118 15.48 109.15 15.51 109.488 15.538 109.793 15.593 109.863 15.827 109.892 16.047 109.919 16.119 109.997 16.144 110.233 16.171 110.484 16.236 110.544 16.513 110.573 16.806 110.604 16.854 110.655 16.882 110.971 16.912 111.298 16.952 111.337 17.3 111.368 17.565 111.392 17.7 111.466 17.734 111.608 17.793 111.849 18.37 112.185 18.724 112.185 18.929 112.185 18.972 112.244 18.972 112.526 18.972 112.84 19.001 112.867 19.341 112.867 19.678 112.867 19.71 112.896 19.71 113.195 19.71 113.584 19.853 113.662 20.563 113.662 21.065 113.662 21.081 113.673 21.081 113.991 21.081 114.379 21.224 114.457 21.934 114.457 22.44 114.457 22.453 114.466 22.453 114.798 22.453 115.119 22.477 115.139 22.867 115.139 23.19 115.139 23.297 115.189 23.35 115.367 23.453 115.718 23.954 115.934 24.663 115.934 25.3 115.934 25.301 115.934 25.301 116.273 25.301 116.646 25.411 116.703 26.246 116.756 26.65 116.782 26.725 116.826 26.778 117.07 26.838 117.346 26.869 117.355 27.857 117.386 L28.874 117.419 28.907 117.727 C28.95 118.125 29.172 118.175 30.971 118.192 L32.368 118.206 32.368 118.532 C32.368 118.999 32.4 119.001 37.682 119 43.186 118.999 43.432 118.98 43.513 118.542 L43.571 118.23 44.757 118.189 C45.997 118.147 46.292 118.038 46.292 117.624 46.292 117.436 46.378 117.411 47.03 117.411 47.578 117.411 47.768 117.371 47.768 117.258 47.768 116.912 48.142 116.729 48.849 116.729 49.903 116.729 49.878 116.758 49.878 115.524 L49.878 114.457 49.516 114.457 C49.184 114.457 49.15 114.426 49.12 114.088 49.087 113.719 49.087 113.719 48.428 113.685 47.781 113.652 47.768 113.645 47.768 113.328 47.768 112.988 47.615 112.867 47.183 112.867 47.04 112.867 46.883 112.77 46.819 112.64 46.757 112.515 46.637 112.412 46.552 112.412 46.467 112.412 46.397 112.362 46.397 112.299 46.397 112.237 46.231 112.185 46.028 112.185 45.713 112.185 45.659 112.147 45.659 111.924 45.659 111.523 45.457 111.39 44.847 111.39 44.323 111.39 44.288 111.373 44.288 111.11 44.288 110.746 44.011 110.595 43.345 110.595 42.822 110.595 42.811 110.588 42.811 110.254 42.811 109.941 42.781 109.913 42.442 109.913 42.117 109.913 42.072 109.879 42.072 109.627 42.072 109.289 41.751 109.118 41.116 109.118 40.729 109.118 40.701 109.096 40.701 108.791 40.701 108.42 40.518 108.327 39.778 108.325 39.351 108.323 39.33 108.307 39.33 107.982 39.33 107.668 39.301 107.642 38.958 107.642 38.658 107.642 38.567 107.586 38.485 107.355 38.375 107.043 38.009 106.846 37.537 106.846 37.285 106.846 37.229 106.794 37.201 106.534 37.17 106.244 37.121 106.214 36.514 106.117 35.919 106.022 35.857 105.986 35.828 105.72 35.8 105.463 35.741 105.422 35.359 105.392 35.024 105.366 34.909 105.304 34.866 105.128 34.835 105.002 34.712 104.87 34.591 104.837 34.471 104.803 34.372 104.73 34.372 104.675 34.372 104.62 33.903 104.574 33.331 104.574 L32.289 104.574 32.229 104.25 C32.163 103.894 31.78 103.779 30.666 103.779 30.166 103.779 30.153 103.77 30.153 103.438 L30.153 103.098 29.474 103.098 28.795 103.098 28.762 102.729 C28.729 102.359 28.729 102.359 28.07 102.325 27.423 102.292 27.41 102.286 27.41 101.968 27.41 101.642 27.256 101.507 26.881 101.507 26.747 101.507 26.676 101.41 26.653 101.195 26.621 100.896 26.592 100.881 25.96 100.849 L25.301 100.815 25.301 100.423 C25.301 100.052 25.281 100.03 24.938 100.03 24.606 100.03 24.573 99.999 24.543 99.661 24.515 99.356 24.46 99.286 24.226 99.257 24.01 99.23 23.927 99.142 23.876 98.888 23.819 98.611 23.755 98.554 23.499 98.554 23.217 98.554 23.191 98.52 23.191 98.156 23.191 97.777 23.174 97.759 22.822 97.759 22.503 97.759 22.453 97.721 22.453 97.489 22.453 96.828 22.319 96.486 22.015 96.373 21.764 96.278 21.714 96.196 21.714 95.873 21.714 95.521 21.686 95.487 21.405 95.487 21.132 95.487 21.091 95.442 21.062 95.118 21.033 94.793 20.987 94.744 20.686 94.713 L20.343 94.677 20.343 93.946 C20.343 93.217 20.342 93.215 20.041 93.215 19.742 93.215 19.739 93.208 19.666 92.343 19.583 91.357 19.472 91.056 19.192 91.056 19.023 91.056 18.993 90.935 18.952 90.099 18.903 89.104 18.777 88.784 18.432 88.784 18.247 88.784 18.234 88.672 18.234 87.073 18.234 85.292 18.16 84.922 17.808 84.922 17.462 84.922 17.491 81.907 17.838 81.791 18.21 81.665 18.23 81.562 18.232 79.725 18.233 78.107 18.247 77.993 18.432 77.993 18.777 77.993 18.903 77.673 18.952 76.678 18.985 75.993 19.038 75.721 19.136 75.721 19.441 75.721 19.591 75.365 19.663 74.477 19.734 73.611 19.747 73.573 20.013 73.541 20.264 73.509 20.294 73.454 20.323 72.96 20.356 72.396 20.614 71.972 20.923 71.972 21.027 71.972 21.081 71.86 21.081 71.646 21.081 71.374 21.134 71.307 21.398 71.251 21.667 71.193 21.714 71.13 21.714 70.836 21.714 70.544 21.763 70.479 22.022 70.424 22.356 70.352 22.449 70.141 22.451 69.452 22.453 69.063 22.477 69.03 22.795 68.998 23.097 68.966 23.142 68.918 23.172 68.593 23.2 68.27 23.243 68.224 23.509 68.224 23.774 68.224 23.823 68.172 23.884 67.826 23.944 67.481 23.993 67.428 24.258 67.428 24.524 67.428 24.563 67.387 24.563 67.095 24.563 66.801 24.604 66.757 24.905 66.726 25.205 66.694 25.252 66.645 25.281 66.326 25.313 65.964 25.316 65.962 25.966 65.929 26.619 65.895 26.62 65.894 26.652 65.526 26.683 65.188 26.716 65.156 27.048 65.156 27.381 65.156 27.41 65.128 27.41 64.816 27.41 64.483 27.423 64.475 27.929 64.475 28.639 64.475 28.781 64.397 28.781 64.008 L28.781 63.68 29.467 63.68 30.153 63.68 30.153 63.286 30.153 62.893 31.181 62.86 C32.203 62.828 32.21 62.826 32.242 62.531 L32.274 62.234 33.531 62.178 C34.831 62.12 35.11 62.022 35.11 61.621 35.11 61.418 35.243 61.408 37.959 61.408 L40.807 61.408 40.807 61.747 C40.807 62.184 41.046 62.252 42.313 62.175 43.493 62.102 43.549 62.041 43.549 60.842 L43.549 59.978 43.892 59.869 C44.226 59.763 44.235 59.743 44.266 59.051 44.297 58.348 44.301 58.341 44.609 58.341 44.883 58.341 44.921 58.301 44.921 58.007 44.921 57.714 44.962 57.669 45.263 57.638 45.563 57.607 45.61 57.557 45.639 57.24 45.667 56.924 45.715 56.873 46.008 56.842 46.301 56.812 46.349 56.76 46.377 56.443 46.41 56.081 46.413 56.079 47.063 56.046 47.677 56.014 47.718 55.994 47.747 55.719 47.776 55.452 47.838 55.416 48.433 55.321 49.037 55.225 49.09 55.193 49.12 54.91 49.152 54.614 49.179 54.601 49.859 54.568 L50.564 54.535 50.597 54.166 50.63 53.797 51.613 53.797 C52.745 53.797 52.723 53.82 52.723 52.604 52.723 51.692 52.656 51.607 51.891 51.548 51.265 51.499 51.25 51.49 51.25 51.17 51.25 50.844 51.249 50.843 50.564 50.843 49.919 50.843 49.878 50.828 49.878 50.582 49.878 50.135 49.686 50.048 48.697 50.048 L47.768 50.048 47.768 49.72 C47.768 49.329 47.627 49.253 46.894 49.253 46.429 49.253 46.319 49.209 46.121 48.941 45.898 48.639 45.851 48.627 44.729 48.59 43.598 48.553 43.566 48.545 43.503 48.274 43.467 48.12 43.319 47.947 43.17 47.886 42.898 47.775 32.753 47.742 32.5 47.852 M127.153 47.895 C126.598 48.073 126.457 48.813 126.933 49.046 L127.197 49.176 127.197 51.19 127.197 53.204 126.946 53.272 C126.623 53.359 126.567 53.608 126.565 54.949 L126.564 56.044 126.194 56.118 125.825 56.193 125.825 56.926 C125.825 57.634 125.816 57.659 125.559 57.659 125.246 57.659 125.087 58.005 125.087 58.689 125.087 59.11 125.068 59.136 124.771 59.136 L124.454 59.136 124.454 60.055 C124.454 60.867 124.427 60.998 124.22 61.178 124.02 61.352 124.007 61.408 124.128 61.565 124.311 61.803 125.119 61.812 125.336 61.578 125.556 61.341 125.825 61.365 125.825 61.621 125.825 62.022 126.105 62.12 127.405 62.178 L128.662 62.234 128.694 62.531 C128.726 62.826 128.733 62.828 129.755 62.86 L130.783 62.893 130.783 63.286 130.783 63.68 131.469 63.68 132.154 63.68 132.154 64.008 C132.154 64.397 132.297 64.475 133.007 64.475 133.513 64.475 133.526 64.483 133.526 64.816 133.526 65.128 133.555 65.156 133.888 65.156 134.22 65.156 134.253 65.188 134.284 65.526 134.317 65.894 134.317 65.895 134.97 65.929 135.62 65.962 135.623 65.964 135.655 66.326 135.684 66.645 135.731 66.694 136.031 66.726 136.332 66.757 136.373 66.801 136.373 67.095 136.373 67.387 136.412 67.428 136.678 67.428 136.943 67.428 136.992 67.481 137.052 67.826 137.113 68.172 137.162 68.224 137.427 68.224 137.693 68.224 137.736 68.27 137.765 68.593 137.794 68.918 137.839 68.966 138.141 68.998 138.459 69.03 138.483 69.063 138.485 69.452 138.487 70.141 138.58 70.352 138.914 70.424 139.173 70.479 139.222 70.544 139.222 70.836 139.222 71.13 139.269 71.193 139.538 71.251 139.802 71.307 139.855 71.374 139.855 71.646 139.855 71.825 139.899 71.972 139.953 71.972 140.007 71.972 140.08 72.072 140.116 72.194 140.152 72.315 140.272 72.446 140.381 72.483 140.528 72.533 140.59 72.679 140.614 73.029 140.642 73.448 140.679 73.51 140.923 73.541 141.189 73.573 141.203 73.611 141.273 74.477 141.345 75.365 141.495 75.721 141.8 75.721 141.898 75.721 141.951 75.993 141.984 76.678 142.033 77.673 142.159 77.993 142.504 77.993 142.689 77.993 142.703 78.107 142.704 79.725 142.706 81.562 142.726 81.665 143.098 81.791 143.445 81.907 143.474 84.922 143.128 84.922 142.776 84.922 142.702 85.292 142.702 87.073 142.702 88.672 142.689 88.784 142.504 88.784 142.159 88.784 142.033 89.104 141.984 90.099 141.943 90.935 141.913 91.056 141.744 91.056 141.464 91.056 141.353 91.357 141.27 92.343 141.197 93.208 141.194 93.215 140.895 93.215 140.594 93.215 140.593 93.217 140.593 93.946 L140.593 94.677 140.25 94.713 C139.949 94.744 139.903 94.793 139.874 95.118 139.845 95.442 139.804 95.487 139.531 95.487 139.25 95.487 139.222 95.521 139.222 95.873 139.222 96.196 139.172 96.278 138.921 96.373 138.617 96.486 138.483 96.828 138.483 97.489 138.483 97.721 138.433 97.759 138.114 97.759 137.762 97.759 137.745 97.777 137.745 98.156 137.745 98.52 137.719 98.554 137.437 98.554 137.182 98.554 137.117 98.611 137.06 98.888 137.009 99.142 136.925 99.23 136.709 99.257 136.476 99.286 136.421 99.356 136.393 99.661 136.363 99.999 136.33 100.03 135.998 100.03 135.655 100.03 135.635 100.052 135.635 100.423 L135.635 100.815 134.976 100.849 C134.344 100.881 134.315 100.896 134.283 101.195 134.26 101.41 134.189 101.507 134.055 101.507 133.68 101.507 133.526 101.642 133.526 101.968 133.526 102.286 133.513 102.292 132.866 102.325 132.207 102.359 132.207 102.359 132.174 102.729 L132.141 103.098 131.462 103.098 130.783 103.098 130.783 103.438 C130.783 103.77 130.77 103.779 130.27 103.779 129.156 103.779 128.773 103.894 128.707 104.25 L128.647 104.574 127.655 104.574 C126.515 104.574 125.931 104.765 125.931 105.136 125.931 105.366 125.884 105.37 123.037 105.37 L120.143 105.37 120.11 105 120.077 104.631 119.048 104.599 118.02 104.566 118.02 104.245 C118.02 103.902 117.732 103.784 116.893 103.78 116.655 103.779 116.538 103.715 116.493 103.561 116.407 103.271 115.908 103.098 115.156 103.098 L114.539 103.098 114.539 102.7 114.539 102.303 113.853 102.303 113.168 102.303 113.168 101.974 C113.168 101.629 113.016 101.507 112.586 101.507 112.434 101.507 112.313 101.423 112.274 101.29 112.206 101.059 111.719 100.826 111.306 100.826 111.131 100.826 111.058 100.761 111.058 100.606 111.058 100.215 110.768 100.03 110.154 100.03 109.592 100.03 109.581 100.024 109.581 99.702 109.581 99.37 109.429 99.235 109.056 99.235 108.951 99.235 108.716 99.085 108.533 98.901 108.342 98.709 108.057 98.553 107.863 98.532 107.566 98.501 107.52 98.452 107.491 98.128 L107.458 97.759 106.786 97.759 106.114 97.759 106.081 97.39 C106.053 97.08 105.997 97.012 105.731 96.964 105.48 96.918 105.408 96.841 105.381 96.594 105.352 96.321 105.302 96.282 104.986 96.282 104.702 96.282 104.624 96.236 104.624 96.069 104.624 95.764 104.408 95.611 103.866 95.531 103.451 95.469 103.383 95.419 103.297 95.105 103.224 94.838 103.129 94.74 102.921 94.714 102.709 94.687 102.629 94.6 102.581 94.344 102.521 94.018 102.503 94.01 101.884 94.01 101.327 94.01 101.248 93.983 101.248 93.792 101.248 93.378 101.125 93.215 100.815 93.215 100.548 93.215 100.51 93.173 100.51 92.886 100.51 92.554 100.357 92.42 99.981 92.42 99.846 92.42 99.775 92.323 99.752 92.107 99.724 91.85 99.66 91.789 99.388 91.76 99.116 91.732 99.046 91.665 98.995 91.391 98.95 91.15 98.872 91.056 98.714 91.056 98.565 91.056 98.447 90.934 98.347 90.675 98.216 90.339 98.139 90.285 97.704 90.22 96.226 90.003 95.552 90.388 95.552 91.451 95.552 91.694 95.504 91.738 95.235 91.738 94.956 91.738 94.919 91.777 94.919 92.072 94.919 92.365 94.878 92.409 94.576 92.441 94.276 92.472 94.229 92.522 94.201 92.839 94.172 93.155 94.125 93.206 93.832 93.236 93.537 93.267 93.491 93.318 93.462 93.641 93.43 94 93.415 94.01 92.935 94.012 92.344 94.014 92.232 94.082 92.138 94.493 92.081 94.745 92.007 94.805 91.76 94.805 91.503 94.805 91.446 94.856 91.419 95.117 91.392 95.364 91.319 95.441 91.069 95.487 90.804 95.535 90.747 95.604 90.72 95.906 90.692 96.221 90.644 96.273 90.35 96.304 90.079 96.332 90.008 96.394 89.983 96.629 89.96 96.845 89.865 96.947 89.614 97.026 89.354 97.109 89.268 97.206 89.243 97.446 89.215 97.708 89.159 97.759 88.9 97.759 88.616 97.759 88.59 97.792 88.59 98.156 88.59 98.536 88.573 98.554 88.216 98.554 L87.842 98.554 87.873 99.264 C87.905 99.971 87.906 99.974 88.241 100.009 88.534 100.04 88.582 100.091 88.61 100.406 88.637 100.702 88.694 100.775 88.921 100.804 89.133 100.83 89.214 100.917 89.261 101.173 89.314 101.455 89.373 101.507 89.642 101.507 89.911 101.507 89.961 101.551 89.961 101.787 89.961 102.142 90.236 102.303 90.845 102.303 91.303 102.303 91.32 102.315 91.352 102.672 91.381 102.996 91.427 103.045 91.728 103.076 92.03 103.108 92.071 103.152 92.071 103.446 92.071 103.75 92.103 103.779 92.433 103.779 92.766 103.779 92.799 103.81 92.829 104.149 92.862 104.517 92.863 104.518 93.515 104.551 94.165 104.585 94.168 104.586 94.201 104.949 94.229 105.268 94.276 105.317 94.576 105.348 94.878 105.38 94.919 105.424 94.919 105.717 94.919 106.008 94.957 106.051 95.22 106.051 95.47 106.051 95.538 106.115 95.62 106.42 95.715 106.78 95.734 106.79 96.367 106.823 97.013 106.857 97.016 106.859 97.049 107.221 97.075 107.519 97.132 107.591 97.36 107.619 97.572 107.646 97.652 107.733 97.7 107.989 97.757 108.297 97.797 108.323 98.221 108.323 98.681 108.323 99.139 108.652 99.139 108.984 99.139 109.058 99.281 109.118 99.455 109.118 99.721 109.118 99.771 109.163 99.771 109.398 99.771 109.762 100.048 109.913 100.714 109.913 101.237 109.913 101.248 109.92 101.248 110.254 101.248 110.557 101.283 110.595 101.564 110.595 101.806 110.595 101.881 110.646 101.881 110.813 101.881 111.318 101.981 111.39 102.676 111.39 L103.344 111.39 103.377 111.759 C103.406 112.084 103.452 112.133 103.753 112.164 103.995 112.189 104.096 112.257 104.096 112.397 104.096 112.732 104.327 112.867 104.901 112.867 105.448 112.867 105.454 112.871 105.487 113.236 105.52 113.605 105.52 113.605 106.179 113.639 106.826 113.672 106.839 113.679 106.839 113.995 106.839 114.36 107.025 114.453 107.755 114.456 108.157 114.457 108.199 114.485 108.229 114.769 108.262 115.072 108.285 115.083 108.975 115.115 L109.686 115.149 109.686 115.542 109.686 115.934 110.365 115.934 C111.027 115.934 111.045 115.942 111.077 116.246 111.115 116.598 111.357 116.692 112.281 116.716 112.813 116.729 113.168 116.954 113.168 117.278 113.168 117.367 113.412 117.411 113.906 117.411 114.558 117.411 114.644 117.436 114.644 117.624 114.644 118.038 114.939 118.147 116.179 118.189 L117.365 118.23 117.423 118.542 C117.504 118.98 117.75 118.999 123.255 119 128.536 119.001 128.568 118.999 128.568 118.532 L128.568 118.206 129.965 118.192 C131.764 118.175 131.986 118.125 132.029 117.727 L132.062 117.419 133.079 117.386 C134.067 117.355 134.098 117.346 134.158 117.07 134.211 116.826 134.286 116.782 134.69 116.756 135.525 116.703 135.635 116.646 135.635 116.273 135.635 115.934 135.636 115.934 136.273 115.934 136.982 115.934 137.483 115.718 137.586 115.367 137.638 115.189 137.746 115.139 138.069 115.139 138.459 115.139 138.483 115.119 138.483 114.798 138.483 114.466 138.496 114.457 139.002 114.457 139.712 114.457 139.855 114.379 139.855 113.991 139.855 113.673 139.871 113.662 140.373 113.662 141.083 113.662 141.226 113.584 141.226 113.195 141.226 112.896 141.258 112.867 141.595 112.867 141.935 112.867 141.964 112.84 141.964 112.526 141.964 112.244 142.007 112.185 142.212 112.185 142.567 112.185 143.143 111.849 143.202 111.608 143.236 111.466 143.371 111.392 143.636 111.368 143.984 111.337 144.024 111.298 144.054 110.971 144.082 110.655 144.13 110.604 144.423 110.573 144.7 110.544 144.765 110.484 144.792 110.233 144.817 109.997 144.889 109.919 145.109 109.892 145.343 109.863 145.398 109.793 145.426 109.488 145.456 109.15 145.489 109.118 145.821 109.118 146.164 109.118 146.184 109.097 146.184 108.728 146.184 108.37 146.212 108.334 146.526 108.302 146.81 108.273 146.875 108.213 146.902 107.961 146.927 107.724 146.999 107.647 147.218 107.62 147.452 107.591 147.508 107.521 147.535 107.222 147.563 106.907 147.611 106.855 147.904 106.824 148.198 106.794 148.244 106.744 148.273 106.42 148.302 106.1 148.345 106.051 148.604 106.051 148.941 106.051 149.028 105.85 149.03 105.057 149.031 104.597 149.046 104.574 149.348 104.574 149.639 104.574 149.664 104.543 149.664 104.177 149.664 103.798 149.682 103.779 150.034 103.779 150.384 103.779 150.403 103.759 150.403 103.389 150.403 103.048 150.439 102.995 150.693 102.963 150.962 102.93 150.99 102.877 151.081 102.217 151.174 101.539 151.191 101.507 151.476 101.507 151.772 101.507 151.774 101.503 151.774 100.776 L151.774 100.045 152.117 100.01 C152.458 99.974 152.46 99.971 152.49 99.286 152.52 98.62 152.532 98.594 152.86 98.491 153.188 98.387 153.199 98.363 153.229 97.681 153.259 97.01 153.274 96.976 153.546 96.942 L153.831 96.906 153.861 95.806 153.891 94.705 154.23 94.67 154.569 94.635 154.599 93.541 154.629 92.446 154.927 92.382 C155.292 92.304 155.36 91.917 155.36 89.937 155.36 88.639 155.364 88.62 155.65 88.374 L155.941 88.125 155.97 83.529 156 78.933 155.68 78.565 155.36 78.196 155.348 76.646 C155.332 74.658 155.287 74.425 154.912 74.379 L154.622 74.343 154.622 73.219 154.622 72.096 154.253 72.022 153.884 71.947 153.884 70.888 153.884 69.829 153.594 69.793 C153.33 69.761 153.301 69.711 153.276 69.246 153.226 68.342 153.174 68.224 152.827 68.224 L152.512 68.224 152.512 67.485 152.512 66.747 152.143 66.747 151.774 66.747 151.774 66.006 C151.774 65.28 151.767 65.263 151.471 65.199 151.203 65.141 151.159 65.073 151.101 64.617 151.026 64.026 150.884 63.793 150.601 63.793 150.446 63.793 150.403 63.709 150.403 63.408 150.403 63.014 150.27 62.885 149.867 62.885 149.712 62.885 149.664 62.804 149.664 62.544 149.664 62.241 149.629 62.203 149.348 62.203 149.046 62.203 149.031 62.181 149.03 61.72 149.028 60.965 148.94 60.743 148.625 60.704 148.395 60.676 148.34 60.604 148.313 60.3 148.283 59.962 148.249 59.931 147.917 59.931 147.573 59.931 147.555 59.911 147.555 59.533 147.555 59.167 147.53 59.136 147.238 59.136 146.96 59.136 146.922 59.097 146.922 58.807 146.922 58.473 146.77 58.341 146.386 58.341 146.231 58.341 146.184 58.26 146.184 58 146.184 57.686 146.154 57.659 145.814 57.659 145.462 57.659 145.445 57.64 145.445 57.262 145.445 56.897 145.419 56.864 145.136 56.864 144.877 56.864 144.821 56.813 144.793 56.552 144.767 56.312 144.681 56.214 144.422 56.132 144.171 56.052 144.076 55.95 144.052 55.735 144.023 55.462 143.98 55.442 143.368 55.411 142.718 55.377 142.715 55.375 142.682 55.013 142.654 54.694 142.607 54.645 142.307 54.613 142.009 54.583 141.964 54.536 141.964 54.256 141.964 53.929 141.809 53.797 141.428 53.797 141.304 53.797 141.226 53.718 141.226 53.592 141.226 53.25 140.999 53.116 140.42 53.116 139.874 53.116 139.868 53.111 139.835 52.746 139.802 52.377 139.802 52.377 139.142 52.343 138.495 52.31 138.483 52.303 138.483 51.986 138.483 51.598 138.34 51.525 137.578 51.525 137.013 51.525 137.006 51.521 137.006 51.184 L137.006 50.843 136.328 50.843 135.649 50.843 135.615 50.474 135.583 50.105 134.877 50.071 C134.198 50.04 134.17 50.026 134.138 49.732 134.101 49.385 133.749 49.272 132.672 49.259 132.158 49.254 132.068 49.219 131.969 48.985 131.828 48.652 131.483 48.572 130.197 48.572 129.293 48.572 129.209 48.553 129.145 48.334 129.008 47.87 127.953 47.637 127.153 47.895" fill="#3c3c3c" fill-opacity="1" stroke="none"/>
</svg>
