<?xml version="1.0" standalone="no"?>
<!DOCTYPE svg PUBLIC "-//W3C//DTD SVG 20010904//EN"
 "http://www.w3.org/TR/2001/REC-SVG-20010904/DTD/svg10.dtd">
<svg version="1.0" xmlns="http://www.w3.org/2000/svg"
 width="1113.000000pt" height="1113.000000pt" viewBox="0 0 1113.000000 1113.000000"
 preserveAspectRatio="xMidYMid meet">
<metadata>
Created by potrace 1.11, written by Peter Selinger 2001-2013
</metadata>
<g transform="translate(0.000000,1113.000000) scale(0.100000,-0.100000)"
fill="#000000" stroke="none">
<path d="M5286 9409 c-461 -33 -905 -145 -1321 -334 -183 -83 -429 -217 -565
-308 -138 -92 -381 -288 -516 -416 -587 -556 -1002 -1322 -1139 -2100 -47
-272 -59 -408 -58 -691 0 -458 57 -800 205 -1235 77 -226 107 -296 222 -520
282 -549 705 -1033 1216 -1391 199 -140 285 -192 485 -291 404 -202 860 -338
1300 -389 185 -22 670 -25 845 -5 472 52 924 186 1345 398 217 110 301 160
498 300 500 356 913 832 1196 1376 110 212 155 322 239 577 171 522 226 1047
166 1605 -30 282 -76 492 -171 780 -303 919 -948 1694 -1811 2178 -226 126
-658 295 -927 361 -395 97 -814 134 -1209 105z m669 -284 c534 -62 1024 -228
1466 -496 739 -447 1290 -1137 1557 -1949 78 -236 126 -464 163 -765 16 -132
16 -550 0 -695 -94 -843 -430 -1562 -1005 -2149 -687 -701 -1592 -1082 -2571
-1082 -256 0 -376 9 -605 47 -746 124 -1420 473 -1960 1014 -279 279 -537 646
-698 990 -416 891 -453 1886 -105 2805 286 753 853 1414 1563 1822 493 283
985 429 1615 477 98 8 452 -4 580 -19z"/>
<path d="M5828 7472 c-13 -3 -27 -31 -129 -262 -78 -178 -112 -255 -154 -350
-24 -52 -80 -180 -125 -285 -45 -104 -95 -217 -110 -250 -32 -71 -79 -176
-150 -340 -85 -196 -120 -275 -165 -375 -24 -52 -63 -142 -88 -200 -54 -125
-108 -247 -172 -390 -25 -58 -73 -166 -105 -240 -92 -214 -130 -292 -142 -288
-9 3 -115 182 -246 413 -81 144 -117 208 -217 380 -54 94 -131 229 -172 300
-181 315 -225 384 -266 412 l-40 28 -421 0 c-232 0 -454 -2 -494 -5 l-73 -5
113 -50 c221 -97 331 -171 439 -297 66 -77 64 -72 722 -1413 89 -181 191 -388
227 -460 l65 -130 396 -3 397 -2 47 107 c110 247 140 316 212 483 42 96 91
209 108 250 18 41 51 116 73 165 21 50 84 194 140 320 303 696 366 840 417
955 18 41 86 197 150 345 64 149 128 295 142 325 46 102 295 674 333 765 l37
90 -76 2 c-129 4 -657 8 -673 5z"/>
<path d="M7123 7473 l-23 -4 0 -872 c0 -480 -4 -878 -9 -886 -7 -11 -98 -12
-519 -10 -281 2 -513 2 -516 -1 -11 -12 -245 -605 -240 -610 3 -3 293 -6 645
-8 l639 -3 0 -708 0 -709 31 -6 c41 -8 687 -8 718 1 l23 6 -4 1898 c-2 1044
-7 1902 -12 1906 -8 8 -694 14 -733 6z"/>
</g>
</svg>
