<?xml version="1.0" encoding="UTF-8"?>
<svg width="30px" height="30px" viewBox="0 0 30 30" xmlns="http://www.w3.org/2000/svg" xmlns:xlink="http://www.w3.org/1999/xlink" version="1.1">
 <!-- Generated by Pixelmator Pro 1.2 -->
 <defs>
  <path id="path" d="M24.998 12.002 L22.912 11.395 22.912 10.351 C22.912 9.536 22.34 9.312 21.847 9.25 L21.847 8.82 C24.129 8.813 24.13 8.756 24.13 8.516 24.13 8.258 24.13 8.212 21.315 8.212 18.499 8.212 18.499 8.258 18.499 8.516 18.499 8.756 18.5 8.813 20.782 8.82 L20.782 9.257 C20.288 9.328 19.717 9.564 19.717 10.351 L19.717 11.03 19.207 10.972 C18.862 10.933 17.409 11.042 16.992 11.008 17.031 9.938 16.992 9.029 16.992 9.008 16.992 8.323 17.362 4.86 15.345 1.009 L15.262 1.009 C13.532 6.195 13.995 9.005 13.995 9.005 13.995 9.005 13.995 11.005 13.995 11.005 13.995 11.005 11.804 10.935 11.48 10.97 L10.891 11.039 10.891 10.351 C10.891 9.536 10.318 9.312 9.825 9.25 L9.825 8.819 C12.107 8.813 12.108 8.756 12.108 8.516 12.108 8.258 12.108 8.212 9.293 8.212 6.477 8.212 6.477 8.258 6.477 8.516 6.477 8.756 6.479 8.813 8.76 8.819 L8.76 9.257 C8.266 9.328 7.695 9.564 7.695 10.351 L7.695 11.41 5.999 12.001 C5.999 12.001 3.444 11.476 3.586 13.89 L3.586 14.562 C4.068 15.226 5.999 15.001 5.999 15.001 L13.999 15.001 C13.999 15.001 13.944 18.266 13.993 19.007 14.134 21.14 13.996 24.004 13.996 24.004 L10.773 24.291 C10.305 24.291 9.977 24.613 9.977 25.073 L9.977 25.93 C9.977 26.366 10.344 27.529 10.739 27.639 L13.794 27.78 C13.851 27.796 13.931 27.816 14.022 27.837 14.29 28.775 14.576 29 14.924 29 L15.683 29 C16.032 29 16.319 28.773 16.588 27.826 16.652 27.811 16.714 27.795 16.768 27.78 L19.869 27.639 C20.267 27.529 20.63 26.358 20.63 25.93 L20.63 25.073 C20.63 24.613 20.303 24.291 19.835 24.291 L16.996 24.004 C16.996 24.004 16.994 19.006 16.994 19.006 16.994 19.006 16.999 15.001 16.999 15.001 L25 15 C25 15 27.021 15.712 27.021 14.562 L27.021 13.89 C27.015 11.314 24.998 12.002 24.998 12.002 Z"/>
 </defs>
 <use id="path-1" xlink:href="#path" fill="#5e5e5e" fill-opacity="1" stroke="none"/>
 <defs>
  <path id="stroke-path" d="M16.844 28.313 L20.438 27.953 21.109 26.203 20.969 24.203 17.484 23.594 17.484 15.531 26.766 15.688 27.547 14.844 27.234 12.391 26.406 11.547 25.078 11.516 23.375 11.016 23.234 9.438 22.906 9.266 24.797 9.156 24.219 7.797 17.953 7.844 18.266 9.234 19.703 9.281 19.391 9.453 19.25 10.531 17.469 10.516 17.344 5.578 15.703 0.5 14.953 0.531 13.516 6.375 13.484 10.516 11.328 10.547 11.203 9.438 10.922 9.281 12.297 9.234 12.672 7.844 6.25 7.797 6.109 9.234 7.844 9.297 7.25 9.703 7.203 11.016 4.219 11.672 3.109 13.125 3.078 14.859 4.219 15.469 13.484 15.516 13.484 23.578 9.625 24.188 9.484 26.203 10.156 27.953 13.688 28.313 14.219 29.359 15.891 29.531 Z"/>
 </defs>
 <use id="path-2" stroke="#ececec" stroke-opacity="1" stroke-linecap="round" fill="none" stroke-width="1" xlink:href="#stroke-path"/>
</svg>
