<?xml version="1.0" encoding="UTF-8"?>
<svg width="30px" height="30px" viewBox="0 0 30 30" xmlns="http://www.w3.org/2000/svg" xmlns:xlink="http://www.w3.org/1999/xlink" version="1.1">
 <!-- Generated by Pixelmator Pro 1.2 -->
 <defs>
  <path id="path" d="M27.746 21.688 C27.746 21.688 27.785 21.844 27.78 22.008 27.776 22.169 27.728 22.522 27.728 22.441 27.728 22.361 27.573 22.261 27.573 22.261 L27.551 22.401 27.43 22.405 27.425 22.181 23.747 20.637 C23.747 20.637 23.734 20.761 23.708 20.777 23.674 20.765 19.638 19.106 19.55 19.061 19.511 19.041 19.533 18.876 19.533 18.876 L18.493 18.732 18.489 18.86 C18.489 18.86 16.301 18.576 16.241 18.612 16.18 18.648 16.297 20.825 16.193 22.301 16.089 23.777 15.911 24.571 15.833 24.855 15.761 25.121 15.82 25.18 15.959 25.292 16.098 25.405 18.883 27.313 19.117 27.478 19.347 27.639 19.351 27.713 19.351 27.811 19.351 27.939 19.355 28.785 19.355 28.785 L15.478 27.911 C15.478 27.911 15.456 28.268 15.4 28.32 15.344 28.372 15.227 28.352 15.227 28.352 15.227 28.352 15.149 29.094 15.106 29.142 15.062 29.19 14.989 29.214 14.989 29.214 14.989 29.214 14.816 29.979 14.736 29.999 14.736 29.999 14.736 30 14.736 30 14.736 30 14.735 30 14.735 30 14.734 30 14.734 30 14.733 30 14.733 30 14.733 29.999 14.733 29.999 14.654 29.979 14.481 29.214 14.481 29.214 14.481 29.214 14.407 29.19 14.364 29.142 14.321 29.094 14.243 28.352 14.243 28.352 14.243 28.352 14.126 28.372 14.069 28.32 14.013 28.268 13.991 27.911 13.991 27.911 L10.114 28.785 C10.114 28.785 10.119 27.939 10.119 27.811 10.119 27.713 10.123 27.639 10.353 27.478 10.586 27.313 13.372 25.405 13.51 25.292 13.649 25.18 13.709 25.121 13.636 24.855 13.558 24.571 13.38 23.777 13.276 22.301 13.172 20.825 13.289 18.648 13.229 18.612 13.168 18.576 10.981 18.86 10.981 18.86 L10.976 18.732 9.937 18.876 C9.937 18.876 9.958 19.041 9.919 19.061 9.831 19.106 5.796 20.765 5.761 20.777 5.735 20.761 5.722 20.637 5.722 20.637 L2.044 22.181 2.04 22.405 1.919 22.401 1.897 22.261 C1.897 22.261 1.741 22.361 1.741 22.441 1.741 22.521 1.693 22.169 1.689 22.008 1.685 21.844 1.724 21.688 1.724 21.688 1.724 21.688 1.598 21.724 1.611 21.571 1.62 21.474 1.945 21.03 1.945 21.03 1.945 21.03 1.968 20.963 1.964 20.916 1.959 20.862 2.031 20.826 2.069 20.795 2.091 20.777 2.067 20.678 2.067 20.678 2.067 20.678 3.286 19.71 5.397 18.195 7.505 16.682 10 14.827 10 14.827 10 14.827 10 14.72 9.977 14.57 9.954 14.42 9.937 14.356 9.937 14.356 9.937 14.356 9.81 14.319 9.775 14.222 9.749 14.151 9.683 13.629 9.694 13.158 9.706 12.688 9.735 12.442 9.769 12.367 9.804 12.292 9.921 12.259 10.07 12.239 10.226 12.217 10.831 12.231 10.977 12.249 11.115 12.267 11.202 12.287 11.225 12.469 11.248 12.65 11.254 13.276 11.236 13.533 11.224 13.715 11.173 13.923 11.202 13.934 11.231 13.944 11.733 13.49 12.01 13.308 12.288 13.126 13.204 12.501 13.2 12.372 13.177 11.608 13.149 10.464 13.142 7.961 13.135 5.284 13.164 4.484 13.529 3.053 13.861 1.754 14.11 1.498 14.238 1.31 14.356 1.137 14.622 1.003 14.733 1 14.733 1 14.733 1 14.733 1 14.734 1 14.734 1 14.735 1 14.735 1 14.736 1 14.737 1 14.737 1 14.737 1 14.737 1 14.848 1.003 15.114 1.137 15.232 1.31 15.359 1.498 15.609 1.754 15.94 3.053 16.306 4.484 16.334 5.284 16.327 7.961 16.321 10.464 16.293 11.608 16.27 12.372 16.266 12.501 17.182 13.126 17.459 13.308 17.737 13.49 18.239 13.944 18.268 13.934 18.297 13.923 18.246 13.715 18.233 13.533 18.216 13.276 18.222 12.65 18.245 12.469 18.268 12.287 18.355 12.267 18.493 12.249 18.639 12.23 19.244 12.217 19.4 12.239 19.548 12.259 19.666 12.292 19.7 12.367 19.735 12.442 19.764 12.688 19.775 13.158 19.787 13.629 19.72 14.151 19.695 14.222 19.66 14.319 19.533 14.356 19.533 14.356 19.533 14.356 19.515 14.42 19.492 14.57 19.469 14.72 19.469 14.827 19.469 14.827 19.469 14.827 21.964 16.682 24.072 18.195 26.184 19.71 27.403 20.678 27.403 20.678 27.403 20.678 27.378 20.777 27.4 20.795 27.438 20.826 27.51 20.862 27.506 20.916 27.502 20.963 27.525 21.03 27.525 21.03 27.525 21.03 27.85 21.474 27.859 21.571 27.871 21.724 27.746 21.688 27.746 21.688 Z"/>
 </defs>
 <use id="path7" xlink:href="#path" fill="#5a5a5a" fill-opacity="1" stroke="none"/>
 <defs>
  <path id="stroke-path" d="M15.797 28.5 L19.891 29.438 19.734 27.328 16.313 24.844 16.703 19.172 19.422 19.391 27.281 22.891 28.203 23.031 28.234 21.609 27.813 20.375 19.984 14.594 20.188 11.828 17.781 11.828 17.766 12.938 16.781 12.188 16.719 4.469 16.047 1.75 14.875 0.281 13.406 1.734 12.734 4.469 12.672 12.188 11.688 12.938 11.672 11.828 9.25 11.828 9.484 14.594 1.672 20.359 1.094 21.5 1.328 23.172 10.031 19.391 12.75 19.172 13.141 24.844 9.719 27.328 9.563 29.438 13.672 28.5 14.391 30.5 15.094 30.5 Z"/>
 </defs>
 <use id="path7-1" stroke="#ececec" stroke-opacity="1" stroke-linecap="round" fill="none" stroke-width="1" xlink:href="#stroke-path"/>
</svg>
